<svg xmlns="http://www.w3.org/2000/svg" xmlns:xlink="http://www.w3.org/1999/xlink" width="40" zoomAndPan="magnify" viewBox="0 0 30 30.000001" height="40" preserveAspectRatio="xMidYMid meet" version="1.0"><defs><clipPath id="id1"><path d="M 1 0.761719 L 29.269531 0.761719 L 29.269531 28.339844 L 1 28.339844 Z M 1 0.761719 " clip-rule="nonzero"/></clipPath></defs><g clip-path="url(#id1)"><path fill="rgb(0%, 0%, 0%)" d="M 14.835938 0.816406 C 14.042969 0.816406 13.425781 1.433594 13.425781 2.21875 L 13.425781 3.621094 L 6.65625 3.621094 C 6.320312 3.621094 6.09375 3.84375 6.09375 4.179688 L 6.09375 10.90625 C 6.09375 11.242188 6.320312 11.46875 6.65625 11.46875 L 25.828125 11.46875 C 26 11.46875 26.175781 11.40625 26.289062 11.238281 L 29.105469 7.875 C 29.277344 7.707031 29.277344 7.378906 29.105469 7.210938 L 26.289062 3.847656 C 26.175781 3.679688 26 3.621094 25.828125 3.621094 L 16.242188 3.621094 L 16.242188 2.21875 C 16.242188 1.433594 15.625 0.816406 14.835938 0.816406 Z M 13.425781 12.027344 L 13.425781 13.148438 L 4.402344 13.148438 C 4.234375 13.148438 4.058594 13.207031 3.945312 13.375 L 1.125 16.738281 C 0.957031 16.964844 0.957031 17.234375 1.125 17.457031 L 3.945312 20.820312 C 4.058594 20.933594 4.234375 20.996094 4.402344 20.996094 L 23.574219 20.996094 C 23.914062 20.996094 24.136719 20.773438 24.136719 20.433594 L 24.136719 13.710938 C 24.136719 13.375 23.914062 13.148438 23.574219 13.148438 L 16.242188 13.148438 L 16.242188 12.027344 Z M 13.425781 21.554688 L 13.425781 28.28125 L 16.242188 28.28125 L 16.242188 21.554688 Z M 13.425781 21.554688 " fill-opacity="1" fill-rule="nonzero"/></g></svg>